<svg xmlns="http://www.w3.org/2000/svg" viewBox="0 0 251.66 218.88"><g id="Layer_2" data-name="Layer 2"><g id="Layer_1-2" data-name="Layer 1"><g id="FullLogo"><path d="M127.29.51c278.1.74,1.46,215.73-1.44,218C307.9,9.87,144.65.89,127.29.51Z" fill="#6a4c93"/><path d="M127.29.51c17.36.38,180.61,9.36-1.44,218l0,0c81-206,0-218,0-218h1.46Z" fill="#1982c4"/><path d="M125.83.5s81,12,0,218Z" fill="#8ac926"/><path d="M125.83.5v218C44.83,12.5,125.83.5,125.83.5Z" fill="#8ac926"/><path d="M125.83.5s-81,12,0,218l0,0c-187.6-215-8.52-218-.27-218Z" fill="#ffca3a"/><path d="M125.81,218.48c-2.9-2.24-280.32-217.83-.27-218C117.29.52-61.79,3.51,125.81,218.48Z" fill="#ff595e"/><path d="M125.83.5h1.46c17.36.38,180.61,9.36-1.44,218l0,0" fill="none" stroke="#1d1d1b" stroke-miterlimit="10"/><path d="M125.85,218.48c2.9-2.24,279.54-217.23,1.44-218" fill="none" stroke="#1d1d1b" stroke-miterlimit="10"/><path d="M125.83.5s81,12,0,218" fill="none" stroke="#1d1d1b" stroke-miterlimit="10"/><path d="M125.83.5h-.29c-8.25,0-187.33,3,.27,218l0,0" fill="none" stroke="#1d1d1b" stroke-miterlimit="10"/><path d="M125.81,218.48c-2.9-2.24-280.32-217.83-.27-218" fill="none" stroke="#1d1d1b" stroke-miterlimit="10"/><path d="M125.83.5s-81,12,0,218" fill="none" stroke="#1d1d1b" stroke-miterlimit="10"/><path d="M122.47,38.35c-5.92,3.49-12.11,7-18.46,10.58-4.41-7.71-9.1-11.8-14.76-12.52a12.55,12.55,0,0,0-7.4,1.15c-2.18,1.11-3.56,2.51-4.08,4.2a6.4,6.4,0,0,0,.52,5C79.5,49,83.66,54.05,91.68,62c7.54,7.32,12.35,11.94,13.94,13.8,4,4.6,6.78,8.85,8.15,12.75a25,25,0,0,1,1.06,12.28,27.12,27.12,0,0,1-12,19.08c-6.55,4.43-14.09,6-24,4.78a52,52,0,0,1-21.47-7.59,56.06,56.06,0,0,1-17.9-18.36c6.28-2.53,12.79-5.07,19.45-7.62,5.43,9.78,12.25,15,19.5,15.84a14.93,14.93,0,0,0,9.73-1.72q4.07-2.41,4.43-6.22a11.2,11.2,0,0,0-2.33-7.31C88.56,89.09,84.46,85,78.16,79.32,66.12,68.54,59.34,60.43,57.07,55a19.17,19.17,0,0,1-.39-15.33c2.84-6.94,8.57-12.37,16.07-16.42S87.42,17.79,95,18.8A31.38,31.38,0,0,1,108.6,24C112.81,26.79,117.33,31.51,122.47,38.35Z" fill="#fff" stroke="#1d1d1b" stroke-miterlimit="10" stroke-width="0.98"/><path d="M155.31,25.58q9.72-1.54,19-3.07c12.19,21,20.71,44.36,22.26,67,.72,10.84-1.3,18.39-3.87,22.87a33.29,33.29,0,0,1-11.42,11.26,41.37,41.37,0,0,1-15.91,5.78c-11.72,1.71-20.45-1.23-29.72-9.28,4.64-4.89,9.56-9.89,14.57-15,3.83,3,6.86,4.81,9.34,5.62a15.28,15.28,0,0,0,7.14.72,7.28,7.28,0,0,0,5.37-3.33c1.2-1.88,1.9-5.75,1.56-11.7C172.19,72.79,164.79,48,155.31,25.58Z" fill="#fff" stroke="#1d1d1b" stroke-miterlimit="10" stroke-width="0.98"/></g></g></g></svg>